<svg xmlns="http://www.w3.org/2000/svg" xmlns:xlink="http://www.w3.org/1999/xlink" viewBox="0 0 512 512"><defs><linearGradient id="linear-gradient" x1="455.5272" y1="462.3326" x2="111.968" y2="466.2219" gradientUnits="userSpaceOnUse"><stop offset="0.0056" stop-color="#91d3a7"/><stop offset="0.1857" stop-color="#87cca7"/><stop offset="0.6909" stop-color="#6ebda7"/><stop offset="1" stop-color="#65b7a7"/></linearGradient><linearGradient id="linear-gradient-2" x1="84.2179" y1="459.866" x2="84.2179" y2="305.6236" gradientUnits="userSpaceOnUse"><stop offset="0.0026" stop-color="#c7d4dd"/><stop offset="0.3062" stop-color="#d8e1e7"/><stop offset="0.6797" stop-color="#e6ecf0"/><stop offset="1" stop-color="#ebf0f3"/></linearGradient><linearGradient id="linear-gradient-3" x1="160.4512" y1="242.8458" x2="254.9973" y2="244.4043" gradientUnits="userSpaceOnUse"><stop offset="0.003" stop-color="#6d8175"/><stop offset="0.6061" stop-color="#42615f"/><stop offset="1" stop-color="#244b50"/></linearGradient><linearGradient id="linear-gradient-4" x1="169.1177" y1="457.8417" x2="169.1177" y2="263.3569" xlink:href="#linear-gradient-2"/><linearGradient id="linear-gradient-5" x1="268.6977" y1="45.8437" x2="314.7873" y2="101.8987" xlink:href="#linear-gradient-3"/><linearGradient id="linear-gradient-6" x1="178.2815" y1="190.9003" x2="284.1343" y2="277.2859" xlink:href="#linear-gradient-3"/><linearGradient id="linear-gradient-7" x1="67.9373" y1="463.3806" x2="63.7676" y2="449.7346" gradientUnits="userSpaceOnUse"><stop offset="0.0026" stop-color="#df606a"/><stop offset="0.3357" stop-color="#eb746a"/><stop offset="0.6942" stop-color="#f4826a"/><stop offset="1" stop-color="#f7876a"/></linearGradient></defs><g id="Exercise_Stress_Test" data-name="Exercise Stress_Test"><path d="M124.02,445.4117H455.8983a18.7946,18.7946,0,0,1,18.7946,18.7946v0a18.7946,18.7946,0,0,1-18.7946,18.7946H124.02a0,0,0,0,1,0,0V445.4117A0,0,0,0,1,124.02,445.4117Z" style="fill:url(#linear-gradient)"/><polygon points="37.307 370.67 75.467 317.623 131.129 317.623 131.129 482.735 37.307 482.735 37.307 370.67" style="fill:url(#linear-gradient-2)"/><path d="M195.8654,287.423h-32.748V239.4669h12V275.423h20.748a25.7559,25.7559,0,0,0,25.7266-25.7266V232.92a32.7606,32.7606,0,0,1,32.7236-32.7236h20.3633a6,6,0,0,1,0,12H254.3156A20.7475,20.7475,0,0,0,233.592,232.92v16.7764A37.769,37.769,0,0,1,195.8654,287.423Z" style="fill:url(#linear-gradient-3)"/><path d="M169.1177,206.1965h0a12.9894,12.9894,0,0,1,12.9894,12.9894V445.4117a0,0,0,0,1,0,0H156.1283a0,0,0,0,1,0,0V219.1859A12.9894,12.9894,0,0,1,169.1177,206.1965Z" style="fill:url(#linear-gradient-4)"/><rect x="267.7267" y="42.0851" width="65.8089" height="85.1933" rx="32.9044" style="fill:url(#linear-gradient-5)"/><path d="M368.3711,434.2775l22.7711-.0015L352.8431,175.0419a33.79,33.79,0,0,0-37.3667-29.6084h0c-26.2316,0-45.2734,21.3252-42.3152,47.3894l7.6081,67.0344-40.2755,56.852a45,45,0,0,0-4.6438,43.7355l31.6342,73.8327h27.3565l-25.39-81.4744a15.9158,15.9158,0,0,1,3.4584-14.57l30.5447-34.6267a5.454,5.454,0,0,1,9.0969,1.4452Z" style="fill:url(#linear-gradient-6)"/><circle cx="65.0372" cy="453.8896" r="8.4867" style="fill:url(#linear-gradient-7)"/></g></svg>